<?xml version="1.0" standalone="no"?><!DOCTYPE svg PUBLIC "-//W3C//DTD SVG 1.1//EN" "http://www.w3.org/Graphics/SVG/1.1/DTD/svg11.dtd"><svg t="1636096288781" class="icon" viewBox="0 0 1024 1024" version="1.1" xmlns="http://www.w3.org/2000/svg" p-id="3941" xmlns:xlink="http://www.w3.org/1999/xlink" width="200" height="200"><defs><style type="text/css"></style></defs><path d="M509.899765 1024c-59.141127-35.828076-46.568868-98.307816-84.705356-137.646204-70.149008-72.323875-193.067163-76.024965-264.685161-158.803465C-79.660962 450.025822 150.951279-68.851719 605.174213 7.631113 869.878452 52.158659 1071.549695 423.011681 891.035713 685.197653 813.389136 797.985505 664.067329 806.990219 573.409704 928.706474c-26.556274 26.365496-13.106437 92.775259-63.509939 95.293526zM128.744739 420.512492C118.080259 621.935724 404.01807 611.710033 404.01807 431.157895c0-91.954914-82.568645-165.747778-190.567974-127.058035-75.98681 27.223996-81.557522 57.061649-84.705357 116.374476z m582.311169 148.234373c242.593088 68.031374 248.717056-351.851551 0-264.704238-117.671765 41.246167-103.954839 235.553386 0 264.704238z m-243.508821 127.038957c38.766055 8.699469 50.346269-104.546251 10.569092-105.881695-22.072995 21.882217-74.17442 90.390536-10.569092 105.881695z m95.274448 0h21.176339c27.357541-43.363801-9.157336-99.834038-52.940848-105.881695 3.548468 42.352678-13.602459 105.366595 31.764509 105.881695z" fill="#E94618" p-id="3942"></path></svg>